<svg width="96" height="105" viewBox="0 0 96 105" fill="none" xmlns="http://www.w3.org/2000/svg">
<g filter="url(#filter0_d)">
<path d="M38.896 63.136C40.72 63.136 41.992 62.992 42.712 62.704C43.48 62.416 43.864 61.672 43.864 60.472C43.864 59.272 42.592 55.192 40.048 48.232H18.088C16.024 54.328 14.992 58.168 14.992 59.752C14.992 61.288 15.376 62.248 16.144 62.632C16.96 62.968 18.4 63.136 20.464 63.136L20.608 64H4.408L4.552 63.136C5.944 63.136 7.024 63.016 7.792 62.776C8.608 62.536 9.472 61.912 10.384 60.904C11.344 59.848 12.256 58.336 13.12 56.368C13.984 54.4 15.016 51.64 16.216 48.088L22.624 29.584C24.88 23.056 26.008 19.096 26.008 17.704C26.008 16.312 25.672 15.424 25 15.04C24.328 14.608 23.032 14.392 21.112 14.392L20.968 13.6H32.848L45.592 48.088C47.752 53.8 49.192 57.424 49.912 58.96C50.68 60.496 51.4 61.48 52.072 61.912C53.272 62.728 54.784 63.136 56.608 63.136L56.752 64H38.752L38.896 63.136ZM28.816 17.488L18.664 46.504H39.472L28.816 17.488Z" fill="black"/>
<path d="M71.44 81.04C73.4667 81.04 74.88 80.88 75.68 80.56C76.5333 80.24 76.96 79.4133 76.96 78.08C76.96 76.7467 75.5467 72.2133 72.72 64.48H48.32C46.0267 71.2533 44.88 75.52 44.88 77.28C44.88 78.9867 45.3067 80.0533 46.16 80.48C47.0667 80.8533 48.6667 81.04 50.96 81.04L51.12 82H33.12L33.28 81.04C34.8267 81.04 36.0267 80.9067 36.88 80.64C37.7867 80.3733 38.7467 79.68 39.76 78.56C40.8267 77.3867 41.84 75.7067 42.8 73.52C43.76 71.3333 44.9067 68.2667 46.24 64.32L53.36 43.76C55.8667 36.5067 57.12 32.1067 57.12 30.56C57.12 29.0133 56.7467 28.0267 56 27.6C55.2533 27.12 53.8133 26.88 51.68 26.88L51.52 26H64.72L78.88 64.32C81.28 70.6667 82.88 74.6933 83.68 76.4C84.5333 78.1067 85.3333 79.2 86.08 79.68C87.4133 80.5867 89.0933 81.04 91.12 81.04L91.28 82H71.28L71.44 81.04ZM60.24 30.32L48.96 62.56H72.08L60.24 30.32Z" fill="black"/>
</g>
<defs>
<filter id="filter0_d" x="0.40802" y="13.6" width="94.872" height="76.4" filterUnits="userSpaceOnUse" color-interpolation-filters="sRGB">
<feFlood flood-opacity="0" result="BackgroundImageFix"/>
<feColorMatrix in="SourceAlpha" type="matrix" values="0 0 0 0 0 0 0 0 0 0 0 0 0 0 0 0 0 0 127 0"/>
<feOffset dy="4"/>
<feGaussianBlur stdDeviation="2"/>
<feColorMatrix type="matrix" values="0 0 0 0 0 0 0 0 0 0 0 0 0 0 0 0 0 0 0.25 0"/>
<feBlend mode="normal" in2="BackgroundImageFix" result="effect1_dropShadow"/>
<feBlend mode="normal" in="SourceGraphic" in2="effect1_dropShadow" result="shape"/>
</filter>
</defs>
</svg>
